<svg xmlns="http://www.w3.org/2000/svg" width="419" height="72.456" viewBox="0 0 419 72.456">
  <path id="Subtraction_7" data-name="Subtraction 7" d="M-1924.5,248.031h-419V210.88c26.017-9.994,56.076-19.625,99.49-22.415,6.088-.392,12.036-.59,17.679-.59,36.47,0,57.528,7.984,79.823,16.436l1.031.391.013,0c10.287,3.9,21.947,8.317,35.739,11.564a188.557,188.557,0,0,0,21.966,3.812,232.528,232.528,0,0,0,26.7,1.447c6.406,0,13.2-.228,20.208-.678a210.45,210.45,0,0,0,36.968-5.674,202.5,202.5,0,0,0,31.754-10.719,206.67,206.67,0,0,0,47.629-28.885V248.03Z" transform="translate(2343.5 -175.575)" fill="#fff"/>
</svg>
